<?xml version="1.0" encoding="utf-8"?>
<!-- Generator: Adobe Illustrator 19.0.0, SVG Export Plug-In . SVG Version: 6.00 Build 0)  -->
<svg version="1.1" id="Layer_1" xmlns="http://www.w3.org/2000/svg" xmlns:xlink="http://www.w3.org/1999/xlink" x="0px" y="0px"
	 viewBox="0 0 500 500" style="enable-background:new 0 0 500 500;" xml:space="preserve">
<style type="text/css">
	.st0{fill:#005B75;}
	.st1{fill:#F99D27;}
	.st2{fill:#B02A30;}
	.st3{fill:#FFFFFF;}
</style>
<g id="XMLID_22_">
	<polyline id="XMLID_24_" class="st0" points="132.3,285.9 144.8,285.9 154.6,249.5 142.1,249.5 132.3,285.9 	"/>
	<polyline id="XMLID_28_" class="st0" points="196.4,285.9 208.9,285.9 218.7,249.5 206.2,249.5 196.4,285.9 	"/>
	<polyline id="XMLID_29_" class="st0" points="260.5,285.9 273,285.9 282.8,249.5 270.3,249.5 260.5,285.9 	"/>
	<path id="XMLID_30_" class="st0" d="M184.8,261.9h12.5c1.7-8.2-3.6-12.4-15.9-12.4c-14.2,0-23.8,6.9-27,19
		c-2.9,10.9,2.9,17.5,16.2,17.5c13.5,0,21.4-4.2,24.8-13.6h-12.5c-1.7,4.1-5,6.3-9.5,6.3c-6,0-8.4-3.8-6.6-10.8
		c1.9-7.2,6.5-11.2,12.6-11.2C183.3,256.8,185.1,258.5,184.8,261.9"/>
	<path id="XMLID_31_" class="st0" d="M248.9,261.9h12.5c1.7-8.2-3.6-12.4-15.9-12.4c-14.2,0-23.8,6.9-27,19
		c-2.9,10.9,2.9,17.5,16.2,17.5c13.5,0,21.4-4.2,24.8-13.6H247c-1.7,4.1-5,6.3-9.5,6.3c-6,0-8.4-3.8-6.6-10.8
		c1.9-7.2,6.5-11.2,12.6-11.2C247.4,256.8,249.2,258.5,248.9,261.9"/>
	<path id="XMLID_32_" class="st1" d="M84.1,229.2c16.7-16.5,36.9-20.8,45-9.5c8.1,11.3,1,34-15.7,50.6c-16.7,16.5-36.9,20.8-45,9.5
		C60.3,268.5,67.3,245.8,84.1,229.2"/>
	<path id="XMLID_33_" class="st2" d="M95.1,220.4c-1.8,1.4-3.7,2.9-5.5,4.7c-14.7,14.4-20.7,34.2-13.5,44.1
		c7.4,9.9,25.5,6.3,40.4-8.3c8-7.8,13.4-16.9,15.7-25.3c0.7-6.2-0.2-11.7-3-15.9C122.6,210.9,108.9,211.6,95.1,220.4"/>
	<path id="XMLID_36_" class="st3" d="M115.2,219.9c1.9,1.9,0.8,6.2-2.6,9.6c-3.4,3.3-7.7,4.5-9.6,2.6c-2-1.9-0.8-6.2,2.5-9.6
		C109,219,113.3,218,115.2,219.9z M103.4,278.4c-7.8,5.9-15.9,8.8-23.8,7.6c3.3,0.2,6-3.5,8.2-8.4c2.2-5,3.6-9.7,4.6-14.1
		c1.6-6.9,1.7-11.9,0.9-13c-1.3-1.8-4.4-1.3-7.8,0.7c-1.6,0.9-3.8,0.3-1.2-2.8c2.6-3.2,13-10.8,16.8-12c4.1-1.2,8.8,0.4,7.2,4.9
		C107.1,244.6,92.7,282.4,103.4,278.4"/>
	<path id="XMLID_41_" class="st0" d="M292.1,286h18.7c5.3,0,9.3-0.4,13.1-3c2.5-1.7,4.4-4.4,5.2-7.2c1.3-5-1-8.4-6.7-9.2
		c5.4-1,8.8-3.8,10-8.2c0.9-3.3,0.2-5.7-2.2-7.3c-2-1.3-5.2-1.5-9.6-1.5h-18.6L292.1,286z M308.3,255.1h7.8c5.8,0,8.5,0.7,7.6,4.4
		c-1,3.6-4.1,4.6-10.2,4.6h-7.6L308.3,255.1z M301.6,280.2l2.9-10.6h8.2c6.3,0,9.1,1.1,7.9,5.4c-1.1,4-4.1,5.2-9.8,5.2H301.6"/>
	<path id="XMLID_47_" class="st0" d="M349.7,286h7.5c0.2-1.7,0.6-3.6,1.2-5.7l2.7-10.2c1.8-6.7-1.5-10.2-10-10.2
		c-8.2,0-13.5,2.8-15.1,7.6h7.2c0.9-2.4,3-3.5,6.5-3.5c3.9,0,5.2,1.7,4.2,5.4l-0.1,0.5h-4c-11.2,0-17.2,2-18.9,8.5
		c-1.3,5,1.8,8.2,8.5,8.2c4.3,0,8.1-1.4,11.1-4.1L349.7,286z M352.6,274.2l-0.1,0.5c-1.3,4.7-5.1,7.5-9.7,7.5
		c-3.4,0-4.8-1.3-4.2-3.7c0.9-3.3,3.8-4.3,9.3-4.3H352.6"/>
	<path id="XMLID_48_" class="st0" d="M363.7,286h7.6l3.5-13c1.3-4.7,5.6-8,10.1-8c4.4,0,6,2.6,4.6,7.8l-3.6,13.3h7.4l4.2-15.6
		c1.8-6.6-1.6-10.4-8.9-10.4c-4.8,0-8.7,1.6-11.9,5.1l0.9-4.5h-7.5c-0.8,4-1.3,6.5-1.5,7.4L363.7,286"/>
	<polyline id="XMLID_53_" class="st0" points="400,286 407.3,286 411,272.3 420.9,286 431,286 419.8,271.5 435,260.6 425.5,260.6 
		411.4,270.8 417.1,249.5 409.8,249.5 400,286 	"/>
</g>
</svg>
